HIERARCHY
ROOT root
{
	OFFSET 0.000000 0.000000 0.000000
	CHANNELS 6 Xposition Yposition Zposition Zrotation Yrotation Xrotation
	JOINT lhip
	{
		OFFSET 0.058581 -0.082280 -0.017664
		CHANNELS 3 Zrotation Yrotation Xrotation
		JOINT lknee
		{
			OFFSET 0.043451 -0.386469 0.008037
			CHANNELS 3 Zrotation Yrotation Xrotation
			JOINT lankle
			{
				OFFSET -0.014790 -0.426874 -0.037428
				CHANNELS 3 Zrotation Yrotation Xrotation
				JOINT ltoe
				{
					OFFSET 0.041054 -0.060286 0.122042
					CHANNELS 3 Zrotation Yrotation Xrotation
					End Site
					{
						OFFSET 0.000000 0.000000 0.000000
					}
				}
			}
		}
	}
	JOINT rhip
	{
		OFFSET -0.060310 -0.090513 -0.013543
		CHANNELS 3 Zrotation Yrotation Xrotation
		JOINT rknee
		{
			OFFSET -0.043257 -0.383688 -0.004843
			CHANNELS 3 Zrotation Yrotation Xrotation
			JOINT rankle
			{
				OFFSET 0.019056 -0.420046 -0.034562
				CHANNELS 3 Zrotation Yrotation Xrotation
				JOINT rtoe
				{
					OFFSET -0.034840 -0.062106 0.130323
					CHANNELS 3 Zrotation Yrotation Xrotation
					End Site
					{
						OFFSET 0.000000 0.000000 0.000000
					}
				}
			}
		}
	}
	JOINT lowerback
	{
		OFFSET 0.004439 0.124404 -0.038385
		CHANNELS 3 Zrotation Yrotation Xrotation
		JOINT upperback
		{
			OFFSET 0.004488 0.137956 0.026820
			CHANNELS 3 Zrotation Yrotation Xrotation
			JOINT chest
			{
				OFFSET -0.002265 0.056032 0.002855
				CHANNELS 3 Zrotation Yrotation Xrotation
				JOINT lowerneck
				{
					OFFSET -0.013390 0.211636 -0.033468
					CHANNELS 3 Zrotation Yrotation Xrotation
					JOINT upperneck
					{
						OFFSET 0.010113 0.088937 0.050410
						CHANNELS 3 Zrotation Yrotation Xrotation
						End Site
						{
							OFFSET 0.000000 0.000000 0.000000
						}
					}
				}
				JOINT lclavicle
				{
					OFFSET 0.071702 0.114000 -0.018898
					CHANNELS 3 Zrotation Yrotation Xrotation
					JOINT lshoulder
					{
						OFFSET 0.122921 0.045205 -0.019046
						CHANNELS 3 Zrotation Yrotation Xrotation
						JOINT lelbow
						{
							OFFSET 0.255332 -0.015649 -0.022946
							CHANNELS 3 Zrotation Yrotation Xrotation
							JOINT lwrist
							{
								OFFSET 0.265709 0.012698 -0.007375
								CHANNELS 3 Zrotation Yrotation Xrotation
								End Site
								{
									OFFSET 0.000000 0.000000 0.000000
								}
							}
						}
					}
				}
				JOINT rclavicle
				{
					OFFSET -0.082954 0.112472 -0.023707
					CHANNELS 3 Zrotation Yrotation Xrotation
					JOINT rshoulder
					{
						OFFSET -0.113228 0.046853 -0.008472
						CHANNELS 3 Zrotation Yrotation Xrotation
						JOINT relbow
						{
							OFFSET -0.260127 -0.014369 -0.031269
							CHANNELS 3 Zrotation Yrotation Xrotation
							JOINT rwrist
							{
								OFFSET -0.269108 0.006794 -0.006027
								CHANNELS 3 Zrotation Yrotation Xrotation
								End Site
								{
									OFFSET 0.000000 0.000000 0.000000
								}
							}
						}
					}
				}
			}
		}
	}
}
MOTION
Frames: 10
Frame Time: 0.033333
1.692741 0.773190 0.757249 -87.891201 0.765382 110.104097 10.759902 -5.243001 -60.885774 -11.149244 7.740535 84.399469 4.988198 13.792791 -44.427248 0.000000 -0.000000 0.000000 -4.194643 7.283490 -60.021509 0.241329 -8.462138 86.076630 5.902035 -14.121870 -44.132886 0.000000 -0.000000 0.000000 -2.347432 -0.028046 38.932432 3.493132 -0.122754 -10.214550 0.071534 -3.009435 4.478542 4.059084 2.482486 -26.081276 4.482017 -9.391517 -14.446407 -30.467693 -0.275989 3.987611 -44.557808 -1.876207 6.632994 5.359920 -26.201894 2.026877 6.429469 -2.794345 -7.051614 29.765416 3.399369 0.551580 49.454565 0.202159 11.178574 -8.778898 16.077225 -1.046147 -0.544501 0.611822 -0.652608 
1.669553 0.773859 0.746693 -88.185676 0.615767 109.212033 9.906158 -6.020271 -58.650048 -10.414802 7.641541 87.401275 3.804267 13.521920 -45.041098 0.000000 -0.000000 0.000000 -3.601006 7.859192 -57.810402 -0.277145 -7.816027 88.775581 6.283679 -13.949149 -44.642998 0.000000 -0.000000 0.000000 -2.395400 -0.120129 40.142900 3.254875 -0.570647 -10.844067 0.097813 -3.230402 4.235097 3.666555 4.234128 -27.655919 4.319005 -7.788804 -13.267094 -31.328208 -4.190403 3.830953 -46.572310 -5.305041 6.773668 7.937799 -25.341346 -0.634964 6.700040 -2.296454 -8.541422 30.855720 7.221159 0.425272 49.841343 4.545959 12.194107 -10.555929 18.245504 -1.741880 -0.576469 1.744175 -1.302217 
1.641433 0.774104 0.748023 -88.336379 0.325228 108.071167 8.106364 -6.921621 -54.310157 -10.071252 5.995915 87.726666 3.393732 13.553441 -45.427748 0.000000 -0.000000 0.000000 -2.358686 8.142533 -53.734399 -0.352300 -6.198854 89.405140 6.989353 -13.466474 -43.588302 0.000000 -0.000000 0.000000 -2.597092 -0.163686 39.940131 3.337238 -1.299704 -10.249791 0.193820 -3.347233 4.025300 3.548211 4.225314 -28.972258 3.887157 -8.138501 -12.007317 -30.471254 -7.666072 3.073128 -47.640824 -9.128578 7.686369 8.867305 -29.498843 -2.958308 10.558191 -2.600182 -9.667519 30.521744 10.845340 -0.807330 50.186159 8.739500 13.436443 -12.385978 24.253394 -5.142002 -1.809049 2.111453 -4.368220 
1.606027 0.775228 0.760894 -88.154742 0.457357 107.183618 6.397865 -7.032667 -47.774635 -10.053003 3.857011 85.049174 2.997120 13.600255 -45.565297 0.000000 -0.000000 0.000000 -0.745467 8.143897 -48.188326 -0.658301 -5.606848 87.643964 7.667613 -13.035422 -41.839087 0.000000 -0.000000 0.000000 -2.471873 -0.538177 37.606524 3.488374 -1.753966 -9.462722 0.195015 -3.129615 3.996510 3.382529 5.330384 -29.895205 3.162087 -8.211050 -11.199621 -27.832511 -10.049506 1.873832 -46.167397 -12.195514 8.594131 8.208885 -39.483633 -0.845992 8.475392 -3.580783 -10.517340 28.606714 12.868319 -2.719902 50.238357 11.429061 14.721925 -16.761085 36.017579 -8.052301 0.012609 2.035620 -6.696495 
1.559677 0.775913 0.785922 -88.661577 0.485038 105.591965 4.426826 -6.194138 -38.571816 -9.953332 1.929859 79.465766 2.410697 13.651546 -42.764309 0.000000 -0.000000 0.000000 1.315260 7.176805 -40.132203 -0.338208 -4.054076 83.010388 8.131347 -12.391327 -37.961077 0.000000 -0.000000 0.000000 -2.314810 -0.356312 33.826354 3.229712 -2.193910 -8.462565 0.109684 -2.405131 3.354533 2.277933 7.010640 -28.395344 3.197677 -6.429607 -9.831690 -23.493305 -12.859186 -0.043524 -41.836860 -12.930613 9.273531 5.735366 -50.904608 2.265476 9.079954 -4.865702 -11.327028 24.839109 14.165573 -4.549481 49.206904 11.437582 15.458005 -24.588421 51.427692 -12.233387 2.125065 2.966246 -7.965535 
1.498142 0.775750 0.823328 -89.361386 -0.377329 103.881983 2.179799 -4.844862 -27.705688 -10.456923 0.132392 71.084053 2.019999 12.971128 -35.570156 0.000000 -0.000000 0.000000 1.409502 4.963627 -29.843111 0.913045 -2.630531 74.775497 7.400567 -12.811253 -29.532551 0.000000 -0.000000 0.000000 -2.711044 0.446564 28.449511 2.954824 -2.987204 -7.350202 0.258708 -2.333537 3.699533 2.494036 5.152672 -25.467463 3.419391 -6.053059 -9.108911 -17.955343 -13.503117 -1.591696 -37.469419 -14.113290 8.585067 3.406622 -60.795143 4.905875 10.996084 -5.242452 -12.372990 19.398040 12.844794 -8.756620 47.986301 11.420861 16.669965 -35.336326 65.517848 -20.245438 1.415327 3.660386 -8.011687 
1.420041 0.779069 0.875479 -89.706319 -0.446460 101.450160 1.973676 -2.329111 -14.410916 -10.841572 -2.088686 59.409982 -0.152746 9.833018 -22.011139 0.000000 -0.000000 0.000000 1.598786 0.777660 -18.294424 1.346975 -1.143588 64.281216 6.425111 -9.911485 -17.018190 0.000000 -0.000000 0.000000 -3.367292 1.200401 20.793246 2.996581 -4.022078 -4.346374 0.601204 -2.373192 3.154724 1.929745 4.365182 -19.712084 4.087743 -4.264461 -7.603788 -12.420257 -13.410494 -1.960474 -36.051030 -12.434405 8.742543 4.218545 -65.976892 5.727783 13.684779 -7.186169 -14.090578 13.672753 11.742290 -10.522605 48.909662 10.100982 16.833428 -51.531624 72.958954 -35.072425 -0.896116 4.896289 -12.127089 
1.326180 0.780360 0.939822 -89.686050 -1.037247 97.826802 2.465239 -1.029698 0.323429 -9.400792 -3.554071 42.963413 -6.203261 6.203678 2.613172 0.000000 -0.000000 0.000000 -1.205638 -3.058574 -4.098146 1.038727 -1.412345 48.535498 7.880234 -5.096522 6.168201 0.000000 -0.000000 0.000000 -4.491794 1.965697 12.493547 2.634649 -5.698228 -0.682452 0.991790 -2.010502 3.633089 0.413364 3.386711 -13.087750 6.095342 -2.115748 -4.682322 -10.147718 -12.504220 -1.766450 -37.831195 -11.777504 9.209036 5.305236 -63.944708 4.876539 9.988925 -9.121915 -9.169592 11.307388 10.353986 -10.175714 51.375201 8.054379 16.918897 -64.072771 74.090737 -49.172275 -0.752415 5.308613 -10.337670 
1.232244 0.779467 1.006943 -88.820570 -0.739399 95.579096 3.405292 0.427741 7.646735 -4.044223 -2.560984 31.347762 -15.084719 7.353651 30.384210 0.000000 -0.000000 0.000000 -1.928276 -5.714486 6.549769 -1.687633 -1.642639 31.844846 11.942517 -4.053237 36.890664 0.000000 -0.000000 0.000000 -4.512683 1.975752 4.735235 2.728255 -7.155040 2.420719 1.191304 -1.928543 1.483514 -2.181816 -0.620583 -2.480575 8.285022 0.603802 -4.406870 -12.275694 -11.027149 0.942685 -39.880644 -11.836773 9.009472 1.293890 -58.772985 7.955850 5.672343 -9.438327 -5.403778 12.884981 8.207031 -6.281418 51.552119 7.262193 16.631683 -54.534869 76.101043 -40.451384 -2.105826 5.144610 -9.933897 
1.157196 0.778105 1.066874 -87.295432 -0.527069 95.008771 1.835250 -2.724213 4.712238 -4.723064 -4.507513 36.533046 -12.737323 7.860913 32.240436 0.000000 -0.000000 0.000000 0.735499 -3.958174 7.295204 -2.326119 0.941498 28.915897 11.573358 -4.901680 49.137058 0.000000 -0.000000 0.000000 -4.397845 1.172704 2.480313 3.306250 -7.861941 -0.643330 1.512607 -2.171510 0.823634 -4.692752 -5.087281 5.325147 9.477056 2.695531 -5.809712 -15.370965 -10.282689 5.075635 -40.836923 -10.023216 8.800363 0.293943 -57.629695 11.388592 2.893537 -8.376554 -3.380575 14.103705 7.119714 -3.179121 51.270188 4.470043 16.085908 -35.807982 77.144865 -18.897059 -0.645875 4.836363 -10.877568 
